FFmpeg version SVN-r25716, Copyright (c) 2000-2010 the FFmpeg developers  built on Nov 10 2010 12:23:18 with gcc 4.1.2 20080704 (Red Hat 4.1.2-48)  configuration: --enable-libmp3lame --enable-shared --disable-mmx --arch=x86_64  libavutil     50.33. 0 / 50.33. 0  libavcore      0.12. 1 /  0.12. 1  libavcodec    52.94. 4 / 52.94. 4  libavformat   52.84. 0 / 52.84. 0  libavdevice   52. 2. 2 / 52. 2. 2  libavfilter    1.59. 0 /  1.59. 0  libswscale     0.12. 0 /  0.12. 0Input #0, avi, from '/RAID10/data/converted_video_files/11960.avi':  Duration: 00:00:10.24, start: 0.000000, bitrate: 6320 kb/s    Stream #0.0: Video: mpeg4, yuv420p, 704x480 [PAR 1:1 DAR 22:15], 25 tbr, 29.97 tbn, 25 tbc[buffer @ 0x1f724830] w:704 h:480 pixfmt:yuv420pOutput #0, flv, to '/RAID10/data/converted_video_files/11960.flv':  Metadata:    encoder         : Lavf52.84.0    Stream #0.0: Video: flv, yuv420p, 704x480 [PAR 1:1 DAR 22:15], q=2-31, 600 kb/s, 1k tbn, 24 tbcStream mapping:  Stream #0.0 -> #0.0Press [q] to stop encodingframe=   28 fps=  0 q=9.4 size=     213kB time=1.21 bitrate=1443.5kbits/s dup=0 drop=7    frame=   64 fps= 62 q=13.0 size=     347kB time=2.71 bitrate=1047.9kbits/s dup=0 drop=16    frame=  104 fps= 66 q=9.7 size=     467kB time=4.37 bitrate= 873.9kbits/s dup=0 drop=26    frame=  135 fps= 65 q=9.4 size=     573kB time=5.67 bitrate= 828.7kbits/s dup=0 drop=33    frame=  170 fps= 66 q=10.8 size=     685kB time=7.12 bitrate= 787.6kbits/s dup=0 drop=42    frame=  208 fps= 68 q=10.8 size=     807kB time=8.71 bitrate= 759.5kbits/s dup=0 drop=51    frame=  240 fps= 67 q=8.9 size=     896kB time=10.04 bitrate= 731.2kbits/s dup=0 drop=59    frame=  246 fps= 65 q=9.7 Lsize=     925kB time=10.29 bitrate= 736.0kbits/s dup=0 drop=61    video:921kB audio:0kB global headers:0kB muxing overhead 0.439784%